<?xml version="1.0" encoding="utf-8"?>
<!-- Generator: Adobe Illustrator 16.0.4, SVG Export Plug-In . SVG Version: 6.00 Build 0)  -->
<!DOCTYPE svg PUBLIC "-//W3C//DTD SVG 1.1//EN" "http://www.w3.org/Graphics/SVG/1.1/DTD/svg11.dtd">
<svg version="1.1" id="Layer_1" xmlns="http://www.w3.org/2000/svg" xmlns:xlink="http://www.w3.org/1999/xlink" x="0px" y="0px"
	 width="167px" height="55px" viewBox="-1.574 8 166.996 55" enable-background="new -1.574 8 166.996 55" xml:space="preserve"
	>
<g>
	<g>
		<path fill="#333333" d="M54.889,27.746c0.723,0.873,1.958,1.605,3.246,1.671c1.461,0.067,2.407-0.753,2.407-1.628
			c0-1.055-0.793-1.669-2.281-2.29l-1.189-0.479c-2.271-0.935-3.396-2.293-3.396-4.124c0-2.273,2.188-3.749,4.479-3.749
			c1.741,0,3.069,0.578,4.17,1.812l-1.651,1.471c-0.749-0.809-1.473-1.131-2.512-1.131c-1.021,0-2.08,0.574-2.08,1.551
			c0,0.917,0.737,1.602,2.245,2.196l1.163,0.5c2.061,0.839,3.46,2.078,3.46,4.049c0,1.978-1.585,4.023-4.795,4.023
			c-2.218,0-3.835-1.003-5.104-2.294L54.889,27.746z"/>
		<path fill="#333333" d="M71.491,25.889c0-3.243,2.446-5.735,5.758-5.735c3.292,0,5.756,2.492,5.756,5.735
			s-2.463,5.729-5.756,5.729C73.938,31.617,71.491,29.132,71.491,25.889 M80.489,25.889c0-1.934-1.356-3.401-3.24-3.401
			c-1.915,0-3.246,1.467-3.246,3.401c0,1.931,1.33,3.401,3.246,3.401C79.131,29.29,80.489,27.82,80.489,25.889"/>
		<path fill="#333333" d="M84.575,25.889c0-3.243,2.448-5.735,5.729-5.735c1.786,0,3.222,0.733,4.25,1.845l-1.672,1.709
			c-0.58-0.667-1.424-1.177-2.578-1.177c-1.886,0-3.223,1.423-3.223,3.357c0,1.931,1.337,3.352,3.223,3.352
			c1.154,0,1.998-0.506,2.578-1.176l1.672,1.71c-1.028,1.112-2.464,1.843-4.25,1.843C87.023,31.617,84.575,29.132,84.575,25.889"/>
	</g>
	<polygon fill="#333333" points="98.776,31.444 96.326,31.444 96.326,15.929 98.776,15.929 98.776,25.354 103.217,20.331 
		106.109,20.331 101.48,25.599 106.658,31.444 103.659,31.444 98.776,25.889 	"/>
	<g>
		<path fill="#333333" d="M110.27,24.439v7.006h-2.449V15.928h2.449v5.45c0.773-0.846,1.957-1.226,3.111-1.226
			c2.756,0,4.506,1.913,4.506,4.781v6.511h-2.436v-6.469c0-1.197-0.896-2.488-2.533-2.488
			C111.648,22.488,110.691,23.153,110.27,24.439"/>
		<path fill="#333333" d="M119.877,25.889c0-3.243,2.434-5.735,5.752-5.735c3.283,0,5.748,2.492,5.748,5.735
			s-2.463,5.729-5.748,5.729C122.311,31.617,119.877,29.132,119.877,25.889 M128.869,25.889c0-1.934-1.348-3.401-3.24-3.401
			c-1.91,0-3.244,1.467-3.244,3.401c0,1.931,1.334,3.401,3.244,3.401C127.521,29.29,128.869,27.82,128.869,25.889"/>
	</g>
	<rect x="133.367" y="15.929" fill="#333333" width="2.439" height="15.515"/>
	<path fill="#333333" d="M140.648,24.377v7.067h-2.453V20.331h2.453v1.048c0.748-0.869,1.844-1.226,2.857-1.226
		c1.562,0,2.742,0.621,3.477,1.71c1.039-1.378,2.59-1.71,3.656-1.71c2.732,0,4.297,1.912,4.297,4.78v6.51h-2.451v-6.468
		c0-1.197-0.689-2.488-2.281-2.488c-1.111,0-2.004,0.666-2.426,1.931c0.02,0.178,0.02,0.336,0.02,0.515v6.51h-2.445v-6.468
		c0-1.197-0.707-2.488-2.309-2.488C141.957,22.488,141.041,23.153,140.648,24.377"/>
	<path fill="#333333" d="M80.175,48.885c-0.773,0.62-1.796,1.001-2.972,1.001c-3.292,0-5.712-2.493-5.712-5.729
		c0-3.251,2.42-5.73,5.712-5.73c1.176,0,2.198,0.369,2.972,1v-0.83h2.449v11.115h-2.449V48.885z M80.175,46.042v-3.771
		c-0.576-0.915-1.704-1.521-2.955-1.521c-1.888,0-3.218,1.475-3.218,3.408c0,1.925,1.33,3.393,3.218,3.393
		C78.472,47.55,79.599,46.957,80.175,46.042"/>
	<path fill="#333333" d="M93.258,48.885c-0.772,0.62-1.801,1.001-2.97,1.001c-3.293,0-5.714-2.493-5.714-5.729
		c0-3.251,2.421-5.73,5.714-5.73c1.169,0,2.197,0.369,2.97,1v-5.232h2.45v15.517h-2.45V48.885z M93.258,46.042v-3.771
		c-0.577-0.915-1.703-1.521-2.955-1.521c-1.886,0-3.223,1.475-3.223,3.408c0,1.925,1.337,3.393,3.223,3.393
		C91.555,47.55,92.681,46.957,93.258,46.042"/>
	<path fill="#333333" d="M70.327,31.444h-1.82c-2.135,0-3.402-1.267-3.402-3.379V22.51h-1.81v-2.179h1.81v-2.616h2.448v2.616h2.774
		v2.179h-2.774v5.042c0,1.132,0.31,1.646,1.577,1.646h1.197V31.444z"/>
	<path fill="#333333" d="M70.327,49.712h-1.82c-2.135,0-3.402-1.266-3.402-3.375v-5.56h-1.81v-2.181h1.81v-2.615h2.448v2.615h2.774
		v2.181h-2.774v5.04c0,1.14,0.31,1.647,1.577,1.647h1.197V49.712z"/>
	<path fill="#333333" d="M156.301,29.691l0.191,0.18c1.326,1.205,2.604,1.789,4.158,1.789c2.645,0,4.029-1.658,4.029-3.299
		c0-1.462-0.936-2.539-2.875-3.299l-0.93-0.384c-1.443-0.553-1.607-1.092-1.607-1.451c0-0.591,0.701-0.991,1.387-0.991
		c0.758,0,1.26,0.27,1.805,0.833l0.166,0.168l1.631-1.408l-0.162-0.18c-0.898-0.973-1.973-1.48-3.445-1.48
		c-1.85,0-3.766,1.159-3.766,3.088c0,1.484,0.951,2.612,2.826,3.363l0.936,0.361c1.201,0.483,1.639,0.896,1.639,1.526
		c0,0.493-0.562,1.002-1.508,1.002c-0.041,0-0.078,0-0.131-0.004c-0.852-0.038-1.85-0.453-2.439-1.138l-0.16-0.185L156.301,29.691z"
		/>
	<path fill="#333333" d="M53.844,47.919l0.194,0.181c1.324,1.201,2.599,1.786,4.157,1.786c2.645,0,4.029-1.654,4.029-3.297
		c0-1.465-0.942-2.537-2.874-3.303l-0.929-0.377c-1.448-0.557-1.617-1.103-1.617-1.457c0-0.593,0.708-0.982,1.394-0.982
		c0.761,0,1.262,0.266,1.806,0.825l0.165,0.173l1.633-1.406l-0.165-0.182c-0.898-0.979-1.979-1.479-3.442-1.479
		c-1.849,0-3.771,1.153-3.771,3.085c0,1.479,0.949,2.616,2.827,3.365l0.936,0.361c1.195,0.484,1.643,0.896,1.643,1.527
		c0,0.494-0.563,1-1.512,1c-0.043,0-0.084,0-0.123-0.003c-0.866-0.036-1.861-0.453-2.451-1.136l-0.159-0.188L53.844,47.919z"/>
</g>
<path fill="#333333" d="M45.092,8.5H-0.077c-0.013,0.478-0.308,12.606,1.239,20.242C3.698,41.246,10.681,52.49,22.51,62.5
	c11.823-10.01,18.81-21.254,21.343-33.758C45.407,21.106,45.105,8.978,45.092,8.5"/>
<path fill="#FFFFFF" d="M28.235,16.324c0.534,0,0.969,0.438,0.969,0.969c0,0.534-0.435,0.972-0.969,0.972
	c-0.535,0-0.969-0.439-0.969-0.972C27.266,16.762,27.699,16.324,28.235,16.324"/>
<path fill="#FFFFFF" d="M16.789,16.324c0.531,0,0.962,0.438,0.962,0.969c0,0.534-0.433,0.972-0.962,0.972
	c-0.537,0-0.971-0.439-0.971-0.972C15.818,16.762,16.252,16.324,16.789,16.324"/>
<path fill="#FFFFFF" d="M14.114,42.109c0.832,0,0.867-0.433,0.909-0.571c-0.159,0.158-0.483,0.264-0.979,0.264
	c-0.502,0-0.99-0.205-1.249-1.009c-0.132-0.417-0.029-0.901-0.029-0.901s0.551,0.434,0.973,0.411
	c0.755-0.035,1.319-0.515,1.319-1.384c0-1.02-0.723-2.113-2.144-3.801c-1.27-1.503-1.895-3.124-1.895-4.715
	c0-3.748,3.73-6.111,3.73-6.111s0.389,9.372,0.468,10.379c0.081,1.015,0.315,2.746,0.921,4.079v3.265
	c-0.163,0.524-0.817,0.736-1.266,0.736C14.513,42.751,14.072,42.417,14.114,42.109"/>
<path fill="#FFFFFF" d="M22.509,23.014c-5.526,0-8.36,0.656-8.36,0.656l-0.726-1.458c0,0,3.836-0.735,9.086-0.735
	c5.249,0,9.085,0.735,9.085,0.735l-0.723,1.458C30.872,23.669,28.037,23.014,22.509,23.014"/>
<path fill="#FFFFFF" d="M27.471,49.739h-9.919l-1.637-1.827c0,0,1.037-0.943,1.037-2.677v-5.131
	c-0.021-0.006,1.905,2.782,5.558,2.782c3.204,0,5.593-2.72,5.561-2.72v5.068c0,1.733,1.035,2.677,1.035,2.677L27.471,49.739z"/>
<path fill="#FFFFFF" d="M31.275,40.305c0.422,0.021,0.974-0.412,0.974-0.412s0.105,0.483-0.026,0.902
	c-0.258,0.802-0.749,1.007-1.242,1.007c-0.502,0-0.824-0.105-0.983-0.264c0.037,0.139,0.08,0.571,0.907,0.571
	c0.043,0.308-0.396,0.642-0.755,0.642c-0.457,0-1.103-0.211-1.269-0.734v-3.264c0.601-1.334,0.837-3.066,0.916-4.08
	c0.079-1.007,0.475-10.378,0.475-10.378S34,26.657,34,30.403c0,1.592-0.621,3.212-1.895,4.715c-1.427,1.688-2.15,2.782-2.15,3.802
	C29.956,39.788,30.521,40.269,31.275,40.305"/>
<path fill="#FFFFFF" d="M31.926,21.56c0,0-3.99-0.807-9.416-0.807c-5.425,0-9.411,0.807-9.411,0.807l-2.636-5.277
	c0,0,0.774-0.542,1.331-0.542c0.979,0,1.2,0.882,1.2,1.187c0,0.245-0.029,0.431-0.177,0.602l-0.041,0.038
	c-0.223,0.253-0.275,0.314-0.275,0.483c0,0.149,0.105,0.388,0.396,0.388c0.251,0,0.313-0.081,0.424-0.4
	c0.121-0.323,0.44-0.646,0.892-0.646c0.439,0,0.929,0.382,0.929,0.93c0,0.588-0.479,0.939-0.929,0.939
	c-0.262,0-0.391-0.073-0.473-0.125c-0.057-0.037-0.089-0.052-0.138-0.052c-0.057,0-0.1,0.035-0.126,0.066
	c-0.075,0.089-0.102,0.227-0.075,0.369c0.075,0.406,0.839,1.024,1.694,1.024c1.273,0,2.046-1.142,2.046-1.973
	c0.486,1.163,1.57,1.413,2.32,1.413c2.01,0,2.426-1.793,2.426-2.268c0-0.323-0.101-0.586-0.194-0.633
	c-0.016-0.002-0.047-0.023-0.117,0.039l-0.082,0.069c-0.24,0.225-0.701,0.637-1.344,0.637c-0.715,0-1.464-0.537-1.464-1.446
	c0-0.96,0.737-1.461,1.46-1.461c0.606,0,0.949,0.333,1.177,0.554c0.088,0.084,0.179,0.179,0.228,0.179
	c0.101,0,0.201-0.044,0.257-0.112c0.052-0.054,0.078-0.124,0.078-0.201c0-0.017,0-0.029,0-0.048
	c-0.009-0.061-0.088-0.141-0.184-0.237c-0.196-0.206-0.471-0.488-0.471-1.034c0-0.63,0.513-1.3,1.274-1.304
	c0.766,0.004,1.274,0.674,1.274,1.304c0,0.546-0.277,0.829-0.473,1.034c-0.094,0.096-0.17,0.176-0.179,0.237
	c0,0.02-0.001,0.031-0.001,0.048c0,0.077,0.026,0.146,0.078,0.201c0.054,0.067,0.153,0.112,0.255,0.112
	c0.05,0,0.141-0.094,0.229-0.179c0.229-0.221,0.571-0.554,1.178-0.554c0.726,0,1.46,0.501,1.46,1.461
	c0,0.908-0.749,1.446-1.467,1.446c-0.639,0-1.101-0.411-1.344-0.637l-0.074-0.069c-0.075-0.062-0.106-0.041-0.119-0.039
	c-0.091,0.046-0.196,0.31-0.196,0.633c0,0.475,0.413,2.268,2.426,2.268c0.747,0,1.831-0.249,2.32-1.413
	c0,0.831,0.771,1.973,2.048,1.973c0.852,0,1.617-0.619,1.69-1.024c0.031-0.142-0.003-0.279-0.074-0.369
	c-0.026-0.031-0.071-0.066-0.131-0.066c-0.047,0-0.079,0.015-0.133,0.052c-0.085,0.053-0.21,0.125-0.474,0.125
	c-0.454,0-0.93-0.351-0.93-0.939c0-0.548,0.493-0.93,0.93-0.93c0.449,0,0.769,0.323,0.892,0.646c0.116,0.319,0.175,0.4,0.426,0.4
	c0.29,0,0.395-0.239,0.395-0.388c0-0.169-0.053-0.229-0.28-0.483l-0.036-0.038c-0.148-0.17-0.179-0.356-0.179-0.602
	c0-0.305,0.227-1.187,1.202-1.187c0.558,0,1.33,0.542,1.33,0.542L31.926,21.56z"/>
<path fill="#FFFFFF" d="M22.509,23.81c-3.944,0-6.421,0.344-6.861,0.416c0.03,0.741,0.28,6.79,0.306,8.491
	c0.005,0.696,0.199,3.061,0.376,3.954c0.392,1.966,2.141,5.284,6.179,5.284c4.042,0,5.785-3.318,6.181-5.284
	c0.179-0.891,0.369-3.257,0.373-3.954c0.028-1.701,0.276-7.75,0.311-8.491C28.927,24.154,26.456,23.81,22.509,23.81 M18.757,25.604
	c0.13-0.014,0.28-0.03,0.425-0.03c0.604,0,1.635,0.167,2.31,0.921c0.729,0.822,0.683,1.617,0.521,2.133
	c-0.109,0.353-0.243,0.342-0.314-0.025c-0.089-0.44-0.331-1.06-0.953-1.688c-0.612-0.612-1.435-0.917-1.992-1.057
	C18.392,25.76,18.407,25.652,18.757,25.604 M17.934,29.078c-0.22-0.049-0.102-0.237,0.107-0.237c0.213,0,0.398-0.149,0.398-0.437
	s-0.27-0.669-0.689-0.669c-0.24,0-0.187-0.174-0.026-0.291c0.309-0.238,0.682-0.296,1.03-0.296c1.194,0,1.854,0.93,1.854,1.271
	c0,0.336-0.647,0.729-1.856,0.729C18.406,29.148,18.17,29.122,17.934,29.078 M24.166,38.41c-0.101,0.069-0.75,0.498-0.891,0.597
	c-0.117,0.065-0.175,0.076-0.313,0.076h-0.908c-0.14,0-0.193-0.011-0.308-0.076c-0.148-0.099-0.795-0.527-0.894-0.597
	c-0.117-0.083-0.093-0.238,0.078-0.238h3.158C24.256,38.172,24.277,38.327,24.166,38.41 M24.955,37.478h-4.909
	c-0.186,0-0.216-0.195-0.018-0.285c0.345-0.172,1.321-0.643,1.554-0.75c0.127-0.063,0.18-0.072,0.321-0.072H23.1
	c0.138,0,0.189,0.009,0.317,0.072c0.237,0.107,1.209,0.578,1.558,0.75C25.171,37.282,25.142,37.478,24.955,37.478 M26.689,29.148
	c-0.346,0-0.583-0.027-0.816-0.07c-0.219-0.049-0.104-0.237,0.11-0.237c0.212,0,0.393-0.149,0.393-0.437s-0.266-0.669-0.688-0.669
	c-0.241,0-0.188-0.174-0.024-0.291c0.309-0.238,0.68-0.296,1.03-0.296c1.192,0,1.856,0.93,1.856,1.271
	C28.55,28.755,27.899,29.148,26.689,29.148 M27.591,26.315c-0.1,0-0.645-0.002-1.268-0.002c-2.326,0-2.563,1.527-2.563,2.761v4.736
	c0,0,0.635,0.614,0.838,0.799c0.144,0.134,0.066,0.213-0.114,0.213h-3.157c-0.242,0-0.266-0.121-0.179-0.213
	c0.08-0.099,0.66-0.604,0.897-0.81c0.152-0.124,0.315-0.159,0.468-0.159h0.281c0.279,0,0.384-0.165,0.384-0.433v-4.7
	c0-1.608,1.107-2.932,2.704-2.932c0.776,0,1.073,0.003,1.541,0.003c0.465,0,1.468-0.003,1.468-0.003S28.442,26.315,27.591,26.315"/>
</svg>
